<svg xmlns="http://www.w3.org/2000/svg" xmlns:xlink="http://www.w3.org/1999/xlink" width="512" zoomAndPan="magnify" viewBox="0 0 384 383.999986" height="512" preserveAspectRatio="xMidYMid meet" version="1.0"><defs><clipPath id="54c28e74e2"><path d="M 25.222656 19.578125 L 358.972656 19.578125 L 358.972656 129 L 25.222656 129 Z M 25.222656 19.578125 " clip-rule="nonzero"/></clipPath><clipPath id="58d8179c25"><path d="M 25.222656 137 L 358.972656 137 L 358.972656 247 L 25.222656 247 Z M 25.222656 137 " clip-rule="nonzero"/></clipPath><clipPath id="0b6158d090"><path d="M 25.222656 255 L 358.972656 255 L 358.972656 364.578125 L 25.222656 364.578125 Z M 25.222656 255 " clip-rule="nonzero"/></clipPath></defs><g clip-path="url(#54c28e74e2)"><path fill="#ffffff" d="M 37.339844 85.429688 L 206.921875 85.429688 C 212.21875 109.890625 234.007812 128.277344 260.03125 128.277344 C 286.054688 128.277344 307.84375 109.890625 313.136719 85.429688 L 347.144531 85.429688 C 353.496094 85.429688 358.648438 80.28125 358.648438 73.929688 C 358.648438 67.578125 353.496094 62.429688 347.144531 62.429688 L 313.136719 62.429688 C 307.84375 37.96875 286.054688 19.578125 260.03125 19.578125 C 234.007812 19.578125 212.21875 37.96875 206.921875 62.429688 L 37.339844 62.429688 C 30.984375 62.429688 25.835938 67.578125 25.835938 73.929688 C 25.835938 80.28125 30.984375 85.429688 37.339844 85.429688 Z M 260.03125 42.578125 C 277.320312 42.578125 291.382812 56.644531 291.382812 73.929688 C 291.382812 91.214844 277.316406 105.277344 260.03125 105.277344 C 242.746094 105.277344 228.679688 91.214844 228.679688 73.929688 C 228.679688 56.644531 242.742188 42.578125 260.03125 42.578125 Z M 260.03125 42.578125 " fill-opacity="1" fill-rule="nonzero"/></g><g clip-path="url(#58d8179c25)"><path fill="#ffffff" d="M 347.144531 180.578125 L 177.558594 180.578125 C 172.265625 156.121094 150.476562 137.730469 124.453125 137.730469 C 98.425781 137.730469 76.640625 156.121094 71.34375 180.578125 L 37.339844 180.578125 C 30.984375 180.578125 25.835938 185.730469 25.835938 192.078125 C 25.835938 198.429688 30.984375 203.578125 37.339844 203.578125 L 71.34375 203.578125 C 76.640625 228.039062 98.425781 246.429688 124.453125 246.429688 C 150.476562 246.429688 172.265625 228.039062 177.558594 203.578125 L 347.144531 203.578125 C 353.496094 203.578125 358.648438 198.429688 358.648438 192.078125 C 358.648438 185.730469 353.496094 180.578125 347.144531 180.578125 Z M 124.453125 223.429688 C 107.164062 223.429688 93.097656 209.363281 93.097656 192.078125 C 93.097656 174.796875 107.164062 160.730469 124.453125 160.730469 C 141.738281 160.730469 155.804688 174.792969 155.804688 192.078125 C 155.804688 209.367188 141.742188 223.429688 124.453125 223.429688 Z M 124.453125 223.429688 " fill-opacity="1" fill-rule="nonzero"/></g><g clip-path="url(#0b6158d090)"><path fill="#ffffff" d="M 347.144531 298.730469 L 313.136719 298.730469 C 307.84375 274.269531 286.054688 255.882812 260.03125 255.882812 C 234.007812 255.882812 212.21875 274.269531 206.921875 298.730469 L 37.339844 298.730469 C 30.984375 298.730469 25.835938 303.878906 25.835938 310.230469 C 25.835938 316.582031 30.984375 321.730469 37.339844 321.730469 L 206.921875 321.730469 C 212.21875 346.191406 234.007812 364.578125 260.03125 364.578125 C 286.054688 364.578125 307.84375 346.191406 313.136719 321.730469 L 347.144531 321.730469 C 353.496094 321.730469 358.648438 316.582031 358.648438 310.230469 C 358.648438 303.878906 353.496094 298.730469 347.144531 298.730469 Z M 260.03125 341.578125 C 242.742188 341.578125 228.679688 327.515625 228.679688 310.230469 C 228.679688 292.945312 242.746094 278.882812 260.03125 278.882812 C 277.316406 278.882812 291.382812 292.945312 291.382812 310.230469 C 291.382812 327.515625 277.320312 341.578125 260.03125 341.578125 Z M 260.03125 341.578125 " fill-opacity="1" fill-rule="nonzero"/></g></svg>