<svg xmlns="http://www.w3.org/2000/svg" xmlns:xlink="http://www.w3.org/1999/xlink" width="512" zoomAndPan="magnify" viewBox="0 0 384 383.999986" height="512" preserveAspectRatio="xMidYMid meet" version="1.0"><defs><clipPath id="5983d6a979"><path d="M 0 40 L 366 40 L 366 370 L 0 370 Z M 0 40 " clip-rule="nonzero"/></clipPath><clipPath id="e8f3c2eb98"><path d="M -22.640625 298.296875 L 356.699219 34.582031 L 405.933594 105.402344 L 26.589844 369.113281 Z M -22.640625 298.296875 " clip-rule="nonzero"/></clipPath><clipPath id="22995820d4"><path d="M -22.640625 298.296875 L 356.699219 34.582031 L 405.933594 105.402344 L 26.589844 369.113281 Z M -22.640625 298.296875 " clip-rule="nonzero"/></clipPath><clipPath id="cf42f75cea"><path d="M 20 40 L 383 40 L 383 373 L 20 373 Z M 20 40 " clip-rule="nonzero"/></clipPath><clipPath id="d8bfe1488f"><path d="M 29.175781 34.558594 L 406.085938 301.730469 L 356.207031 372.097656 L -20.703125 104.921875 Z M 29.175781 34.558594 " clip-rule="nonzero"/></clipPath><clipPath id="0924b72e41"><path d="M 406.125 301.757812 L 29.214844 34.585938 L -20.664062 104.949219 L 356.246094 372.125 Z M 406.125 301.757812 " clip-rule="nonzero"/></clipPath></defs><g clip-path="url(#5983d6a979)"><g clip-path="url(#e8f3c2eb98)"><g clip-path="url(#22995820d4)"><path fill="#ffffff" d="M 93.542969 217.527344 L 94.863281 216.609375 C 96.074219 216.515625 97.308594 216.449219 98.484375 216.832031 C 99.988281 217.480469 101.394531 218.355469 102.9375 218.910156 C 104.394531 219.449219 106.035156 218.855469 107.179688 217.902344 C 109.703125 216.203125 112.242188 214.515625 114.8125 212.875 C 119.425781 209.351562 124.253906 206.113281 128.808594 202.503906 C 135.0625 198.554688 140.347656 193.097656 147.117188 189.972656 C 149.347656 188.996094 151.40625 187.6875 153.386719 186.273438 C 158.214844 182.839844 163.214844 179.640625 167.808594 175.886719 C 175 170.589844 182.550781 165.789062 189.710938 160.441406 C 193.460938 157.902344 196.976562 155.035156 200.71875 152.480469 C 209.949219 146.089844 219.152344 139.65625 228.390625 133.265625 C 230.539062 131.785156 232.683594 130.261719 234.671875 128.554688 C 236.839844 126.796875 239.371094 125.578125 241.597656 123.902344 C 247.535156 119.335938 253.800781 115.222656 259.917969 110.90625 C 262.46875 109.175781 264.699219 107.03125 267.292969 105.359375 C 268.648438 104.40625 270.125 103.625 271.410156 102.566406 C 278.726562 97.203125 286.402344 92.328125 293.640625 86.84375 C 300.375 81.535156 307.777344 77.132812 314.550781 71.867188 C 316.703125 70.375 318.789062 68.789062 320.996094 67.375 C 322.703125 66.421875 324.082031 65.042969 325.683594 63.921875 C 332.90625 58.773438 340.351562 53.914062 347.34375 48.453125 C 347.953125 47.996094 348.722656 47.765625 349.292969 47.238281 C 351.042969 46.867188 350.085938 45.832031 349.855469 45.023438 C 350.132812 44.742188 350.441406 44.503906 350.796875 44.3125 C 351.234375 44.507812 351.65625 44.753906 352.09375 44.960938 C 354.121094 43.914062 355.882812 42.425781 357.589844 40.925781 C 359.265625 40.175781 361.089844 41.3125 362.207031 42.519531 L 362.882812 43.492188 C 363.253906 44.460938 363.648438 45.4375 363.441406 46.480469 C 363.167969 46.925781 362.847656 47.34375 362.558594 47.769531 C 363.011719 47.941406 363.476562 48.082031 363.925781 48.289062 C 364.4375 49.210938 365.703125 49.9375 365.570312 51.167969 C 365.484375 51.53125 365.304688 52.253906 365.214844 52.617188 C 364.8125 52.964844 364.382812 53.269531 363.933594 53.539062 C 362.921875 53.304688 362.171875 52.484375 361.226562 52.074219 C 361.515625 52.75 361.78125 53.433594 361.96875 54.140625 C 360.035156 55.554688 358.058594 56.898438 356.214844 58.402344 C 350.742188 62.808594 344.488281 66.175781 339.3125 70.945312 C 338.402344 72.121094 337.480469 73.324219 336.253906 74.191406 C 334.710938 75.667969 332.550781 75.976562 330.695312 76.835938 C 329.964844 77.3125 329.273438 77.828125 328.617188 78.378906 C 323.777344 82.484375 318.085938 85.457031 313.300781 89.625 C 308.820312 93.117188 303.824219 95.910156 299.527344 99.632812 C 295.625 102.648438 291.375 105.195312 287.480469 108.207031 C 285.519531 109.929688 283.3125 111.328125 281.292969 112.949219 C 280.449219 114.632812 279.054688 115.90625 277.429688 116.84375 C 276.097656 118.378906 273.890625 117.746094 272.4375 119.039062 C 266.675781 122.738281 261.34375 127.050781 255.5625 130.71875 C 253.289062 132.269531 251.042969 133.847656 248.855469 135.507812 C 245.730469 137.589844 242.671875 139.765625 239.769531 142.144531 C 238.035156 144.484375 236.988281 147.335938 234.886719 149.417969 C 231.652344 153.082031 227.222656 155.332031 223.410156 158.285156 C 222.996094 159.046875 223.132812 160.050781 222.476562 160.691406 C 220.390625 163.039062 217.691406 164.691406 215.359375 166.761719 C 212.394531 169.257812 208.917969 170.980469 205.820312 173.273438 C 200.261719 176.476562 195.300781 180.839844 191.8125 186.25 C 191.421875 186.8125 191.074219 187.449219 190.464844 187.792969 C 186.179688 190.359375 182.253906 193.449219 178.152344 196.273438 C 174.445312 199.453125 170.234375 201.957031 166.316406 204.851562 C 165.683594 205.484375 164.828125 205.828125 164.351562 206.59375 C 160.980469 212.496094 156.242188 217.5625 150.855469 221.679688 C 147.988281 224.195312 144.75 226.21875 141.644531 228.417969 C 140.433594 229.164062 140.292969 230.753906 139.507812 231.84375 C 137.332031 233.796875 134.941406 235.75 133.59375 238.40625 C 133.550781 238.78125 133.449219 239.53125 133.398438 239.910156 C 133.765625 242.457031 135.023438 244.796875 135.332031 247.363281 C 135.140625 248.191406 134.921875 249.011719 134.574219 249.78125 C 133.621094 251.84375 132.945312 254.109375 131.375 255.824219 C 129.949219 257.878906 128.023438 259.585938 125.679688 260.527344 C 124.242188 260.75 122.777344 260.730469 121.335938 260.578125 C 119.210938 260.539062 117.261719 259.613281 115.238281 259.105469 C 114.421875 259.097656 113.648438 259.433594 112.96875 259.855469 C 109.804688 262.6875 107.089844 265.960938 104.507812 269.320312 C 103.058594 271.605469 100.921875 273.402344 99.703125 275.832031 C 98.839844 277.105469 97.613281 278.09375 96.800781 279.40625 C 95.84375 280.9375 94.566406 282.238281 93.464844 283.660156 C 91.582031 286.5 89.242188 289 87.148438 291.675781 C 83.121094 296.929688 79.007812 302.113281 74.886719 307.292969 C 73.519531 309.101562 72.222656 310.972656 70.691406 312.652344 C 68.890625 314.710938 67.402344 317.023438 65.609375 319.097656 C 62.679688 322.5625 60.242188 326.40625 57.289062 329.851562 C 54.976562 333.3125 51.910156 336.167969 49.59375 339.621094 C 47.128906 342.589844 44.863281 345.714844 42.535156 348.789062 C 39.640625 352.375 36.886719 356.074219 34.171875 359.796875 C 32.332031 362.90625 30.050781 365.726562 27.625 368.398438 L 26.597656 369.109375 L 23.476562 364.617188 C 22.847656 361.898438 21.605469 359.375 20.949219 356.671875 C 20.023438 353.761719 18.570312 351.058594 17.539062 348.191406 C 15.636719 344.691406 13.441406 341.355469 11.1875 338.078125 C 9.40625 336.910156 8.449219 334.910156 6.921875 333.464844 C 4.808594 331 2.910156 328.324219 1.464844 325.40625 C 0.8125 324.003906 0.386719 322.296875 0.914062 320.777344 C 6.238281 316.414062 11.75 312.285156 17.0625 307.90625 C 19.511719 305.925781 22.175781 304.21875 24.566406 302.164062 C 25.878906 301.136719 27.09375 299.957031 28.542969 299.117188 C 38.003906 292.023438 47.085938 284.4375 56.308594 277.035156 C 59.316406 274.886719 62.277344 272.53125 65.738281 271.148438 C 67.746094 270.691406 69.839844 270.722656 71.875 270.976562 C 73.882812 271.304688 75.929688 271.210938 77.957031 271.09375 C 78.480469 271.109375 78.925781 270.773438 79.324219 270.46875 C 81.980469 268.425781 83.789062 265.554688 85.886719 263 C 90.15625 258.664062 93.578125 253.609375 97.535156 249.007812 C 98.96875 247.089844 100.730469 245.449219 102.101562 243.484375 C 104.210938 240.628906 106.527344 237.9375 108.8125 235.222656 C 108.480469 234.613281 107.9375 234.164062 107.367188 233.785156 C 107.09375 234.21875 106.898438 234.695312 106.609375 235.117188 C 105.761719 235.449219 104.898438 235.0625 104.136719 234.707031 C 104.199219 234.128906 104.332031 232.96875 104.394531 232.390625 C 104.800781 232.117188 105.316406 232.15625 105.78125 232.054688 C 105.453125 229.9375 106.140625 227.785156 107.449219 226.113281 C 107.535156 225.558594 107.707031 224.921875 107.324219 224.4375 C 106.589844 224.726562 105.867188 225.078125 105.101562 225.261719 C 104.257812 225.285156 103.4375 225.050781 102.625 224.882812 C 100.011719 224.003906 98.578125 221.316406 96.066406 220.261719 C 95.292969 219.902344 94.46875 219.617188 93.78125 219.097656 C 93.640625 218.585938 93.597656 218.054688 93.542969 217.527344 M 122.75 245.628906 C 122.402344 245.976562 122.058594 246.324219 121.761719 246.714844 C 122.011719 248.015625 122.074219 249.34375 122.320312 250.648438 C 122.84375 252.449219 124.042969 253.902344 125.015625 255.46875 L 123.671875 256.328125 C 120.980469 255.539062 119.464844 252.851562 118.875 250.261719 C 118.390625 251.070312 118.78125 251.980469 118.925781 252.828125 C 119.097656 254.074219 119.996094 255.035156 120.550781 256.117188 C 121.566406 256.628906 122.59375 257.136719 123.664062 257.539062 C 124.832031 257.5 126.089844 257.371094 126.890625 256.324219 C 128.03125 255.085938 129.277344 253.847656 129.933594 252.261719 C 130.757812 250.429688 132.027344 248.542969 131.730469 246.4375 C 131.082031 245.363281 130.289062 244.34375 129.242188 243.648438 C 128.261719 243.394531 127.238281 243.074219 126.234375 243.390625 C 124.808594 243.5625 123.820312 244.824219 122.75 245.628906 Z M 122.75 245.628906 " fill-opacity="1" fill-rule="nonzero"/></g></g></g><g clip-path="url(#cf42f75cea)"><g clip-path="url(#d8bfe1488f)"><g clip-path="url(#0924b72e41)"><path fill="#ffffff" d="M 290.683594 219.929688 L 289.371094 219 C 288.164062 218.894531 286.929688 218.820312 285.753906 219.1875 C 284.242188 219.824219 282.828125 220.683594 281.277344 221.226562 C 279.816406 221.753906 278.179688 221.144531 277.046875 220.179688 C 274.535156 218.457031 272.015625 216.746094 269.460938 215.082031 C 264.878906 211.519531 260.078125 208.234375 255.558594 204.585938 C 249.339844 200.578125 244.105469 195.074219 237.363281 191.886719 C 235.144531 190.886719 233.097656 189.5625 231.132812 188.128906 C 226.335938 184.652344 221.363281 181.40625 216.804688 177.613281 C 209.660156 172.246094 202.15625 167.378906 195.046875 161.964844 C 191.316406 159.390625 187.828125 156.496094 184.109375 153.90625 C 174.9375 147.429688 165.792969 140.910156 156.613281 134.4375 C 154.480469 132.9375 152.347656 131.394531 150.378906 129.667969 C 148.222656 127.894531 145.703125 126.648438 143.492188 124.953125 C 137.597656 120.335938 131.371094 116.164062 125.292969 111.789062 C 122.757812 110.035156 120.546875 107.871094 117.96875 106.171875 C 116.625 105.210938 115.152344 104.414062 113.878906 103.34375 C 106.609375 97.914062 98.980469 92.96875 91.792969 87.417969 C 85.105469 82.050781 77.746094 77.578125 71.019531 72.253906 C 68.878906 70.738281 66.8125 69.132812 64.617188 67.699219 C 62.917969 66.734375 61.550781 65.339844 59.960938 64.203125 C 52.785156 58.988281 45.386719 54.0625 38.441406 48.539062 C 37.835938 48.074219 37.070312 47.839844 36.503906 47.304688 C 34.757812 46.917969 35.722656 45.894531 35.960938 45.085938 C 35.6875 44.800781 35.382812 44.5625 35.03125 44.367188 C 34.589844 44.558594 34.164062 44.800781 33.726562 45.003906 C 31.710938 43.9375 29.957031 42.433594 28.265625 40.917969 C 26.597656 40.152344 24.761719 41.273438 23.636719 42.46875 L 22.949219 43.4375 C 22.570312 44.398438 22.167969 45.375 22.363281 46.417969 C 22.636719 46.867188 22.949219 47.285156 23.234375 47.71875 C 22.78125 47.886719 22.3125 48.019531 21.863281 48.222656 C 21.34375 49.140625 20.070312 49.855469 20.191406 51.085938 C 20.277344 51.453125 20.449219 52.175781 20.535156 52.539062 C 20.933594 52.890625 21.363281 53.199219 21.808594 53.472656 C 22.824219 53.246094 23.578125 52.433594 24.527344 52.035156 C 24.234375 52.703125 23.960938 53.386719 23.769531 54.089844 C 25.6875 55.523438 27.648438 56.886719 29.484375 58.40625 C 34.914062 62.863281 41.136719 66.285156 46.269531 71.101562 C 47.167969 72.285156 48.078125 73.496094 49.296875 74.375 C 50.828125 75.867188 52.984375 76.195312 54.832031 77.070312 C 55.558594 77.554688 56.242188 78.078125 56.894531 78.636719 C 61.699219 82.785156 67.363281 85.808594 72.109375 90.023438 C 76.554688 93.554688 81.527344 96.394531 85.789062 100.152344 C 89.664062 103.207031 93.886719 105.789062 97.757812 108.839844 C 99.703125 110.578125 101.894531 111.996094 103.902344 113.636719 C 104.726562 115.328125 106.109375 116.613281 107.726562 117.566406 C 109.046875 119.113281 111.261719 118.503906 112.699219 119.808594 C 118.425781 123.558594 123.71875 127.917969 129.464844 131.640625 C 131.726562 133.210938 133.957031 134.8125 136.128906 136.488281 C 139.234375 138.601562 142.273438 140.804688 145.152344 143.210938 C 146.867188 145.566406 147.890625 148.425781 149.96875 150.53125 C 153.171875 154.222656 157.582031 156.511719 161.367188 159.5 C 161.773438 160.265625 161.628906 161.269531 162.277344 161.914062 C 164.339844 164.28125 167.023438 165.960938 169.339844 168.050781 C 172.28125 170.574219 175.742188 172.332031 178.820312 174.648438 C 184.347656 177.90625 189.265625 182.3125 192.707031 187.753906 C 193.089844 188.320312 193.433594 188.960938 194.039062 189.308594 C 198.300781 191.917969 202.195312 195.039062 206.273438 197.902344 C 209.953125 201.117188 214.140625 203.65625 218.03125 206.585938 C 218.660156 207.226562 219.507812 207.578125 219.980469 208.351562 C 223.296875 214.28125 227.988281 219.390625 233.335938 223.558594 C 236.179688 226.097656 239.402344 228.152344 242.488281 230.378906 C 243.691406 231.136719 243.816406 232.726562 244.589844 233.824219 C 246.75 235.796875 249.121094 237.769531 250.445312 240.4375 C 250.488281 240.816406 250.582031 241.566406 250.625 241.945312 C 250.238281 244.492188 248.957031 246.820312 248.625 249.378906 C 248.808594 250.210938 249.019531 251.03125 249.363281 251.808594 C 250.296875 253.878906 250.953125 256.148438 252.503906 257.878906 C 253.910156 259.945312 255.820312 261.671875 258.15625 262.632812 C 259.589844 262.867188 261.054688 262.863281 262.5 262.722656 C 264.625 262.703125 266.582031 261.796875 268.613281 261.308594 C 269.425781 261.308594 270.199219 261.652344 270.875 262.078125 C 274.007812 264.9375 276.699219 268.238281 279.246094 271.621094 C 280.675781 273.917969 282.796875 275.734375 283.992188 278.175781 C 284.84375 279.457031 286.058594 280.457031 286.859375 281.777344 C 287.804688 283.316406 289.070312 284.628906 290.15625 286.058594 C 292.011719 288.917969 294.332031 291.4375 296.402344 294.132812 C 300.378906 299.425781 304.445312 304.644531 308.515625 309.863281 C 309.871094 311.683594 311.148438 313.5625 312.664062 315.257812 C 314.445312 317.335938 315.914062 319.660156 317.6875 321.753906 C 320.585938 325.242188 322.988281 329.109375 325.910156 332.582031 C 328.191406 336.0625 331.230469 338.945312 333.511719 342.421875 C 335.953125 345.410156 338.191406 348.558594 340.488281 351.652344 C 343.351562 355.265625 346.070312 358.992188 348.75 362.738281 C 350.5625 365.863281 352.820312 368.703125 355.222656 371.394531 L 356.238281 372.117188 L 359.402344 367.652344 C 360.058594 364.941406 361.320312 362.429688 362.003906 359.730469 C 362.957031 356.832031 364.429688 354.140625 365.492188 351.285156 C 367.421875 347.800781 369.648438 344.488281 371.933594 341.226562 C 373.726562 340.078125 374.699219 338.085938 376.242188 336.65625 C 378.378906 334.210938 380.300781 331.550781 381.773438 328.648438 C 382.4375 327.25 382.878906 325.546875 382.363281 324.023438 C 377.082031 319.613281 371.605469 315.433594 366.335938 311.003906 C 363.902344 309 361.253906 307.269531 358.886719 305.191406 C 357.582031 304.15625 356.378906 302.964844 354.9375 302.113281 C 345.542969 294.933594 336.527344 287.261719 327.371094 279.773438 C 324.386719 277.601562 321.445312 275.21875 317.996094 273.804688 C 315.992188 273.328125 313.898438 273.339844 311.863281 273.574219 C 309.851562 273.886719 307.804688 273.773438 305.78125 273.636719 C 305.253906 273.644531 304.816406 273.308594 304.417969 273 C 301.78125 270.933594 300 268.042969 297.925781 265.46875 C 293.695312 261.097656 290.320312 256.007812 286.402344 251.371094 C 284.988281 249.441406 283.242188 247.785156 281.886719 245.808594 C 279.808594 242.933594 277.515625 240.21875 275.253906 237.484375 C 275.589844 236.875 276.140625 236.433594 276.710938 236.058594 C 276.980469 236.496094 277.171875 236.976562 277.457031 237.398438 C 278.300781 237.738281 279.171875 237.363281 279.9375 237.011719 C 279.878906 236.433594 279.757812 235.273438 279.699219 234.691406 C 279.292969 234.414062 278.78125 234.449219 278.316406 234.34375 C 278.664062 232.230469 277.996094 230.070312 276.703125 228.386719 C 276.621094 227.832031 276.457031 227.195312 276.84375 226.710938 C 277.574219 227.007812 278.289062 227.367188 279.058594 227.558594 C 279.902344 227.589844 280.722656 227.359375 281.535156 227.199219 C 284.160156 226.347656 285.617188 223.671875 288.136719 222.640625 C 288.914062 222.285156 289.738281 222.011719 290.433594 221.496094 C 290.578125 220.988281 290.625 220.453125 290.683594 219.929688 M 261.222656 247.765625 C 261.566406 248.113281 261.910156 248.464844 262.199219 248.859375 C 261.941406 250.15625 261.863281 251.484375 261.605469 252.785156 C 261.066406 254.582031 259.855469 256.023438 258.867188 257.578125 L 260.203125 258.453125 C 262.898438 257.6875 264.441406 255.015625 265.054688 252.429688 C 265.53125 253.242188 265.132812 254.152344 264.980469 254.996094 C 264.796875 256.242188 263.890625 257.195312 263.324219 258.269531 C 262.308594 258.773438 261.273438 259.269531 260.199219 259.664062 C 259.03125 259.613281 257.773438 259.472656 256.984375 258.417969 C 255.855469 257.171875 254.621094 255.921875 253.980469 254.332031 C 253.171875 252.488281 251.917969 250.589844 252.234375 248.488281 C 252.890625 247.421875 253.695312 246.40625 254.75 245.722656 C 255.730469 245.476562 256.757812 245.167969 257.757812 245.492188 C 259.179688 245.679688 260.160156 246.949219 261.222656 247.765625 Z M 261.222656 247.765625 " fill-opacity="1" fill-rule="nonzero"/></g></g></g></svg>