<svg xmlns="http://www.w3.org/2000/svg" xmlns:xlink="http://www.w3.org/1999/xlink" width="512" zoomAndPan="magnify" viewBox="0 0 384 383.999986" height="512" preserveAspectRatio="xMidYMid meet" version="1.0"><defs><clipPath id="7f905f0fe2"><path d="M 81 7.769531 L 376.019531 7.769531 L 376.019531 303 L 81 303 Z M 81 7.769531 " clip-rule="nonzero"/></clipPath><clipPath id="fea7142b90"><path d="M 7.769531 81 L 303 81 L 303 376.019531 L 7.769531 376.019531 Z M 7.769531 81 " clip-rule="nonzero"/></clipPath></defs><g clip-path="url(#7f905f0fe2)"><path fill="#ffffff" d="M 320.785156 302.371094 L 136.660156 302.371094 C 134.851562 302.371094 133.046875 302.277344 131.246094 302.101562 C 129.445312 301.921875 127.660156 301.65625 125.886719 301.300781 C 124.113281 300.945312 122.359375 300.507812 120.628906 299.980469 C 118.898438 299.453125 117.199219 298.84375 115.527344 298.152344 C 113.859375 297.460938 112.226562 296.6875 110.632812 295.832031 C 109.035156 294.980469 107.488281 294.050781 105.984375 293.046875 C 104.480469 292.039062 103.03125 290.964844 101.632812 289.816406 C 100.234375 288.667969 98.894531 287.457031 97.617188 286.175781 C 96.335938 284.898438 95.125 283.558594 93.976562 282.160156 C 92.828125 280.761719 91.753906 279.3125 90.746094 277.808594 C 89.742188 276.304688 88.8125 274.757812 87.960938 273.160156 C 87.105469 271.566406 86.332031 269.933594 85.640625 268.265625 C 84.949219 266.59375 84.339844 264.894531 83.8125 263.164062 C 83.285156 261.433594 82.847656 259.679688 82.492188 257.90625 C 82.136719 256.132812 81.871094 254.347656 81.691406 252.546875 C 81.511719 250.746094 81.421875 248.941406 81.421875 247.132812 L 81.421875 63.007812 C 81.421875 61.199219 81.511719 59.394531 81.691406 57.597656 C 81.871094 55.796875 82.136719 54.011719 82.492188 52.238281 C 82.847656 50.460938 83.285156 48.710938 83.8125 46.980469 C 84.339844 45.25 84.949219 43.550781 85.640625 41.878906 C 86.332031 40.207031 87.105469 38.574219 87.960938 36.980469 C 88.8125 35.386719 89.742188 33.835938 90.746094 32.332031 C 91.753906 30.832031 92.828125 29.378906 93.976562 27.980469 C 95.125 26.582031 96.335938 25.246094 97.617188 23.964844 C 98.894531 22.6875 100.234375 21.472656 101.632812 20.328125 C 103.03125 19.179688 104.480469 18.101562 105.984375 17.097656 C 107.488281 16.09375 109.035156 15.164062 110.632812 14.308594 C 112.226562 13.457031 113.859375 12.683594 115.527344 11.992188 C 117.199219 11.296875 118.898438 10.6875 120.628906 10.164062 C 122.359375 9.636719 124.113281 9.195312 125.886719 8.84375 C 127.660156 8.488281 129.445312 8.222656 131.246094 8.042969 C 133.046875 7.863281 134.851562 7.773438 136.660156 7.769531 L 320.785156 7.769531 C 322.59375 7.773438 324.398438 7.863281 326.195312 8.042969 C 327.996094 8.222656 329.78125 8.488281 331.554688 8.84375 C 333.328125 9.195312 335.082031 9.636719 336.8125 10.164062 C 338.542969 10.6875 340.242188 11.296875 341.914062 11.992188 C 343.585938 12.683594 345.21875 13.457031 346.8125 14.308594 C 348.40625 15.164062 349.957031 16.09375 351.460938 17.097656 C 352.960938 18.101562 354.414062 19.179688 355.8125 20.328125 C 357.210938 21.472656 358.546875 22.6875 359.828125 23.964844 C 361.105469 25.246094 362.320312 26.582031 363.464844 27.980469 C 364.613281 29.378906 365.691406 30.832031 366.695312 32.332031 C 367.699219 33.835938 368.628906 35.386719 369.484375 36.980469 C 370.335938 38.574219 371.109375 40.207031 371.800781 41.878906 C 372.496094 43.550781 373.105469 45.25 373.628906 46.980469 C 374.15625 48.710938 374.597656 50.460938 374.949219 52.238281 C 375.304688 54.011719 375.570312 55.796875 375.75 57.597656 C 375.929688 59.394531 376.019531 61.199219 376.019531 63.007812 L 376.019531 247.132812 C 376.019531 248.941406 375.929688 250.746094 375.75 252.546875 C 375.570312 254.347656 375.304688 256.132812 374.949219 257.90625 C 374.597656 259.679688 374.15625 261.433594 373.628906 263.164062 C 373.105469 264.894531 372.496094 266.59375 371.800781 268.265625 C 371.109375 269.933594 370.335938 271.566406 369.484375 273.160156 C 368.628906 274.757812 367.699219 276.304688 366.695312 277.808594 C 365.691406 279.3125 364.613281 280.761719 363.464844 282.160156 C 362.320312 283.558594 361.105469 284.898438 359.828125 286.175781 C 358.546875 287.457031 357.210938 288.667969 355.8125 289.816406 C 354.414062 290.964844 352.960938 292.039062 351.460938 293.046875 C 349.957031 294.050781 348.40625 294.980469 346.8125 295.832031 C 345.21875 296.6875 343.585938 297.460938 341.914062 298.152344 C 340.242188 298.84375 338.542969 299.453125 336.8125 299.980469 C 335.082031 300.507812 333.328125 300.945312 331.554688 301.300781 C 329.78125 301.65625 327.996094 301.921875 326.195312 302.101562 C 324.398438 302.277344 322.59375 302.371094 320.785156 302.371094 Z M 136.660156 44.597656 C 136.054688 44.597656 135.453125 44.625 134.855469 44.683594 C 134.253906 44.746094 133.660156 44.832031 133.066406 44.949219 C 132.476562 45.066406 131.890625 45.214844 131.3125 45.390625 C 130.738281 45.5625 130.167969 45.765625 129.613281 45.996094 C 129.054688 46.230469 128.511719 46.484375 127.980469 46.769531 C 127.449219 47.054688 126.929688 47.363281 126.429688 47.699219 C 125.929688 48.035156 125.445312 48.394531 124.976562 48.777344 C 124.511719 49.160156 124.066406 49.5625 123.640625 49.988281 C 123.214844 50.414062 122.808594 50.863281 122.425781 51.328125 C 122.042969 51.792969 121.683594 52.277344 121.347656 52.78125 C 121.015625 53.28125 120.703125 53.796875 120.421875 54.328125 C 120.136719 54.859375 119.878906 55.40625 119.648438 55.960938 C 119.417969 56.519531 119.214844 57.085938 119.039062 57.664062 C 118.863281 58.242188 118.71875 58.824219 118.601562 59.417969 C 118.484375 60.007812 118.394531 60.605469 118.335938 61.203125 C 118.277344 61.804688 118.246094 62.40625 118.246094 63.007812 L 118.246094 247.132812 C 118.246094 247.738281 118.277344 248.339844 118.335938 248.9375 C 118.394531 249.539062 118.484375 250.132812 118.601562 250.726562 C 118.71875 251.316406 118.863281 251.902344 119.039062 252.480469 C 119.214844 253.054688 119.417969 253.621094 119.648438 254.179688 C 119.878906 254.738281 120.136719 255.28125 120.421875 255.8125 C 120.703125 256.34375 121.015625 256.863281 121.347656 257.363281 C 121.683594 257.863281 122.042969 258.347656 122.425781 258.816406 C 122.808594 259.28125 123.214844 259.726562 123.640625 260.152344 C 124.066406 260.578125 124.511719 260.984375 124.976562 261.367188 C 125.445312 261.75 125.929688 262.109375 126.429688 262.441406 C 126.929688 262.777344 127.449219 263.089844 127.980469 263.371094 C 128.511719 263.65625 129.054688 263.914062 129.613281 264.144531 C 130.167969 264.375 130.738281 264.578125 131.3125 264.753906 C 131.890625 264.929688 132.476562 265.074219 133.066406 265.191406 C 133.660156 265.308594 134.253906 265.398438 134.855469 265.457031 C 135.453125 265.515625 136.054688 265.546875 136.660156 265.546875 L 320.785156 265.546875 C 321.386719 265.546875 321.988281 265.515625 322.589844 265.457031 C 323.1875 265.398438 323.785156 265.308594 324.375 265.191406 C 324.96875 265.074219 325.550781 264.929688 326.128906 264.753906 C 326.707031 264.578125 327.273438 264.375 327.828125 264.144531 C 328.386719 263.914062 328.933594 263.65625 329.464844 263.371094 C 329.996094 263.089844 330.511719 262.777344 331.011719 262.441406 C 331.515625 262.109375 332 261.75 332.464844 261.367188 C 332.929688 260.984375 333.378906 260.578125 333.804688 260.152344 C 334.230469 259.726562 334.632812 259.28125 335.015625 258.816406 C 335.398438 258.347656 335.757812 257.863281 336.09375 257.363281 C 336.429688 256.863281 336.738281 256.34375 337.023438 255.8125 C 337.304688 255.28125 337.5625 254.738281 337.792969 254.179688 C 338.027344 253.621094 338.226562 253.054688 338.402344 252.480469 C 338.578125 251.902344 338.726562 251.316406 338.84375 250.726562 C 338.960938 250.132812 339.046875 249.539062 339.109375 248.9375 C 339.167969 248.339844 339.195312 247.738281 339.195312 247.132812 L 339.195312 63.007812 C 339.195312 62.40625 339.167969 61.804688 339.109375 61.203125 C 339.046875 60.605469 338.960938 60.007812 338.84375 59.417969 C 338.726562 58.824219 338.578125 58.242188 338.402344 57.664062 C 338.226562 57.085938 338.027344 56.519531 337.792969 55.960938 C 337.5625 55.40625 337.304688 54.859375 337.023438 54.328125 C 336.738281 53.796875 336.429688 53.28125 336.09375 52.78125 C 335.757812 52.277344 335.398438 51.792969 335.015625 51.328125 C 334.632812 50.863281 334.230469 50.414062 333.804688 49.988281 C 333.378906 49.5625 332.929688 49.160156 332.464844 48.777344 C 332 48.394531 331.515625 48.035156 331.011719 47.699219 C 330.511719 47.363281 329.996094 47.054688 329.464844 46.769531 C 328.933594 46.484375 328.386719 46.230469 327.828125 45.996094 C 327.273438 45.765625 326.707031 45.5625 326.128906 45.390625 C 325.550781 45.214844 324.96875 45.066406 324.375 44.949219 C 323.785156 44.832031 323.1875 44.746094 322.589844 44.683594 C 321.988281 44.625 321.386719 44.597656 320.785156 44.597656 Z M 136.660156 44.597656 " fill-opacity="1" fill-rule="nonzero"/></g><g clip-path="url(#fea7142b90)"><path fill="#ffffff" d="M 247.132812 376.019531 L 63.007812 376.019531 C 61.199219 376.019531 59.394531 375.929688 57.597656 375.75 C 55.796875 375.570312 54.011719 375.304688 52.238281 374.949219 C 50.460938 374.597656 48.710938 374.15625 46.980469 373.628906 C 45.25 373.105469 43.550781 372.496094 41.878906 371.800781 C 40.207031 371.109375 38.574219 370.335938 36.980469 369.484375 C 35.386719 368.628906 33.835938 367.699219 32.332031 366.695312 C 30.832031 365.691406 29.378906 364.613281 27.980469 363.464844 C 26.582031 362.320312 25.246094 361.105469 23.964844 359.828125 C 22.6875 358.546875 21.472656 357.210938 20.328125 355.8125 C 19.179688 354.414062 18.101562 352.960938 17.097656 351.460938 C 16.09375 349.957031 15.164062 348.40625 14.308594 346.8125 C 13.457031 345.21875 12.683594 343.585938 11.992188 341.914062 C 11.296875 340.242188 10.6875 338.542969 10.164062 336.8125 C 9.636719 335.082031 9.195312 333.328125 8.84375 331.554688 C 8.488281 329.78125 8.222656 327.996094 8.042969 326.195312 C 7.863281 324.398438 7.773438 322.59375 7.769531 320.785156 L 7.769531 136.660156 C 7.773438 134.851562 7.863281 133.046875 8.042969 131.246094 C 8.222656 129.445312 8.488281 127.660156 8.84375 125.886719 C 9.195312 124.113281 9.636719 122.359375 10.164062 120.628906 C 10.6875 118.898438 11.296875 117.199219 11.992188 115.527344 C 12.683594 113.859375 13.457031 112.226562 14.308594 110.632812 C 15.164062 109.035156 16.09375 107.488281 17.097656 105.984375 C 18.101562 104.480469 19.179688 103.03125 20.328125 101.632812 C 21.472656 100.234375 22.6875 98.894531 23.964844 97.617188 C 25.246094 96.335938 26.582031 95.125 27.980469 93.976562 C 29.378906 92.828125 30.832031 91.753906 32.332031 90.746094 C 33.835938 89.742188 35.386719 88.8125 36.980469 87.960938 C 38.574219 87.105469 40.207031 86.332031 41.878906 85.640625 C 43.550781 84.949219 45.25 84.339844 46.980469 83.8125 C 48.710938 83.285156 50.460938 82.847656 52.238281 82.492188 C 54.011719 82.136719 55.796875 81.871094 57.597656 81.691406 C 59.394531 81.511719 61.199219 81.421875 63.007812 81.421875 L 99.832031 81.421875 C 100.4375 81.421875 101.039062 81.449219 101.636719 81.511719 C 102.238281 81.570312 102.835938 81.65625 103.425781 81.773438 C 104.015625 81.894531 104.601562 82.039062 105.179688 82.214844 C 105.753906 82.390625 106.324219 82.59375 106.878906 82.824219 C 107.4375 83.054688 107.980469 83.3125 108.511719 83.59375 C 109.046875 83.878906 109.5625 84.1875 110.0625 84.523438 C 110.566406 84.859375 111.046875 85.21875 111.515625 85.601562 C 111.980469 85.984375 112.425781 86.386719 112.855469 86.8125 C 113.28125 87.242188 113.683594 87.6875 114.066406 88.152344 C 114.449219 88.621094 114.808594 89.101562 115.144531 89.605469 C 115.476562 90.105469 115.789062 90.621094 116.074219 91.15625 C 116.355469 91.6875 116.613281 92.230469 116.84375 92.789062 C 117.074219 93.34375 117.277344 93.910156 117.453125 94.488281 C 117.628906 95.066406 117.773438 95.648438 117.894531 96.242188 C 118.011719 96.832031 118.097656 97.429688 118.15625 98.027344 C 118.21875 98.628906 118.246094 99.230469 118.246094 99.832031 C 118.246094 100.4375 118.21875 101.039062 118.15625 101.636719 C 118.097656 102.238281 118.011719 102.835938 117.894531 103.425781 C 117.773438 104.015625 117.628906 104.601562 117.453125 105.179688 C 117.277344 105.753906 117.074219 106.324219 116.84375 106.878906 C 116.613281 107.4375 116.355469 107.980469 116.074219 108.511719 C 115.789062 109.046875 115.476562 109.5625 115.144531 110.0625 C 114.808594 110.566406 114.449219 111.046875 114.066406 111.515625 C 113.683594 111.980469 113.28125 112.425781 112.855469 112.855469 C 112.425781 113.28125 111.980469 113.683594 111.515625 114.066406 C 111.046875 114.449219 110.566406 114.808594 110.0625 115.144531 C 109.5625 115.476562 109.046875 115.789062 108.511719 116.074219 C 107.980469 116.355469 107.4375 116.613281 106.878906 116.84375 C 106.324219 117.074219 105.753906 117.277344 105.179688 117.453125 C 104.601562 117.628906 104.015625 117.773438 103.425781 117.894531 C 102.835938 118.011719 102.238281 118.097656 101.636719 118.15625 C 101.039062 118.21875 100.4375 118.246094 99.832031 118.246094 L 63.007812 118.246094 C 62.40625 118.246094 61.804688 118.277344 61.203125 118.335938 C 60.605469 118.394531 60.007812 118.484375 59.417969 118.601562 C 58.824219 118.71875 58.242188 118.863281 57.664062 119.039062 C 57.085938 119.214844 56.519531 119.417969 55.960938 119.648438 C 55.40625 119.878906 54.859375 120.136719 54.328125 120.421875 C 53.796875 120.703125 53.28125 121.015625 52.78125 121.347656 C 52.277344 121.683594 51.792969 122.042969 51.328125 122.425781 C 50.863281 122.808594 50.414062 123.214844 49.988281 123.640625 C 49.5625 124.066406 49.160156 124.511719 48.777344 124.976562 C 48.394531 125.445312 48.035156 125.929688 47.699219 126.429688 C 47.363281 126.929688 47.054688 127.449219 46.769531 127.980469 C 46.484375 128.511719 46.230469 129.054688 45.996094 129.613281 C 45.765625 130.167969 45.5625 130.738281 45.390625 131.3125 C 45.214844 131.890625 45.066406 132.476562 44.949219 133.066406 C 44.832031 133.660156 44.746094 134.253906 44.683594 134.855469 C 44.625 135.453125 44.597656 136.054688 44.597656 136.660156 L 44.597656 320.785156 C 44.597656 321.386719 44.625 321.988281 44.683594 322.589844 C 44.746094 323.1875 44.832031 323.785156 44.949219 324.375 C 45.066406 324.96875 45.214844 325.550781 45.390625 326.128906 C 45.5625 326.707031 45.765625 327.273438 45.996094 327.828125 C 46.230469 328.386719 46.484375 328.933594 46.769531 329.464844 C 47.054688 329.996094 47.363281 330.511719 47.699219 331.011719 C 48.035156 331.515625 48.394531 332 48.777344 332.464844 C 49.160156 332.929688 49.5625 333.378906 49.988281 333.804688 C 50.414062 334.230469 50.863281 334.632812 51.328125 335.015625 C 51.792969 335.398438 52.277344 335.757812 52.78125 336.09375 C 53.28125 336.429688 53.796875 336.738281 54.328125 337.023438 C 54.859375 337.304688 55.40625 337.5625 55.960938 337.792969 C 56.519531 338.027344 57.085938 338.226562 57.664062 338.402344 C 58.242188 338.578125 58.824219 338.726562 59.417969 338.84375 C 60.007812 338.960938 60.605469 339.046875 61.203125 339.109375 C 61.804688 339.167969 62.40625 339.195312 63.007812 339.195312 L 247.132812 339.195312 C 247.738281 339.195312 248.339844 339.167969 248.9375 339.109375 C 249.539062 339.046875 250.132812 338.960938 250.726562 338.84375 C 251.316406 338.726562 251.902344 338.578125 252.480469 338.402344 C 253.054688 338.226562 253.621094 338.027344 254.179688 337.792969 C 254.738281 337.5625 255.28125 337.304688 255.8125 337.023438 C 256.34375 336.738281 256.863281 336.429688 257.363281 336.09375 C 257.863281 335.757812 258.347656 335.398438 258.816406 335.015625 C 259.28125 334.632812 259.726562 334.230469 260.152344 333.804688 C 260.578125 333.378906 260.984375 332.929688 261.367188 332.464844 C 261.75 332 262.109375 331.515625 262.441406 331.011719 C 262.777344 330.511719 263.089844 329.996094 263.371094 329.464844 C 263.65625 328.933594 263.914062 328.386719 264.144531 327.828125 C 264.375 327.273438 264.578125 326.707031 264.753906 326.128906 C 264.929688 325.550781 265.074219 324.96875 265.191406 324.375 C 265.308594 323.785156 265.398438 323.1875 265.457031 322.589844 C 265.515625 321.988281 265.546875 321.386719 265.546875 320.785156 L 265.546875 283.957031 C 265.546875 283.355469 265.574219 282.753906 265.636719 282.152344 C 265.695312 281.554688 265.78125 280.957031 265.898438 280.367188 C 266.019531 279.773438 266.164062 279.191406 266.339844 278.613281 C 266.515625 278.035156 266.71875 277.46875 266.949219 276.914062 C 267.179688 276.355469 267.4375 275.8125 267.71875 275.28125 C 268.003906 274.746094 268.3125 274.230469 268.648438 273.730469 C 268.984375 273.226562 269.34375 272.746094 269.726562 272.277344 C 270.109375 271.8125 270.511719 271.367188 270.9375 270.9375 C 271.367188 270.511719 271.8125 270.109375 272.277344 269.726562 C 272.746094 269.34375 273.226562 268.984375 273.730469 268.648438 C 274.230469 268.316406 274.746094 268.003906 275.28125 267.71875 C 275.8125 267.4375 276.355469 267.179688 276.914062 266.949219 C 277.46875 266.71875 278.035156 266.515625 278.613281 266.339844 C 279.191406 266.164062 279.773438 266.019531 280.367188 265.898438 C 280.957031 265.78125 281.554688 265.695312 282.152344 265.636719 C 282.753906 265.574219 283.355469 265.546875 283.957031 265.546875 C 284.5625 265.546875 285.164062 265.574219 285.761719 265.636719 C 286.363281 265.695312 286.960938 265.78125 287.550781 265.898438 C 288.140625 266.019531 288.726562 266.164062 289.304688 266.339844 C 289.878906 266.515625 290.449219 266.71875 291.003906 266.949219 C 291.5625 267.179688 292.105469 267.4375 292.636719 267.71875 C 293.171875 268.003906 293.6875 268.316406 294.1875 268.648438 C 294.691406 268.984375 295.171875 269.34375 295.640625 269.726562 C 296.105469 270.109375 296.550781 270.511719 296.976562 270.9375 C 297.40625 271.367188 297.808594 271.8125 298.191406 272.277344 C 298.574219 272.746094 298.933594 273.226562 299.269531 273.730469 C 299.601562 274.230469 299.914062 274.746094 300.199219 275.28125 C 300.480469 275.8125 300.738281 276.355469 300.96875 276.914062 C 301.199219 277.46875 301.402344 278.035156 301.578125 278.613281 C 301.753906 279.191406 301.898438 279.773438 302.019531 280.367188 C 302.136719 280.957031 302.222656 281.554688 302.28125 282.152344 C 302.34375 282.753906 302.371094 283.355469 302.371094 283.957031 L 302.371094 320.785156 C 302.371094 322.59375 302.277344 324.398438 302.101562 326.195312 C 301.921875 327.996094 301.65625 329.78125 301.300781 331.554688 C 300.945312 333.328125 300.507812 335.082031 299.980469 336.8125 C 299.453125 338.542969 298.84375 340.242188 298.152344 341.914062 C 297.460938 343.585938 296.6875 345.21875 295.832031 346.8125 C 294.980469 348.40625 294.050781 349.957031 293.046875 351.460938 C 292.039062 352.960938 290.964844 354.414062 289.816406 355.8125 C 288.667969 357.210938 287.457031 358.546875 286.175781 359.828125 C 284.898438 361.105469 283.558594 362.320312 282.160156 363.464844 C 280.761719 364.613281 279.3125 365.691406 277.808594 366.695312 C 276.304688 367.699219 274.757812 368.628906 273.160156 369.484375 C 271.566406 370.335938 269.933594 371.109375 268.265625 371.800781 C 266.59375 372.496094 264.894531 373.105469 263.164062 373.628906 C 261.433594 374.15625 259.679688 374.597656 257.90625 374.949219 C 256.132812 375.304688 254.347656 375.570312 252.546875 375.75 C 250.746094 375.929688 248.941406 376.019531 247.132812 376.019531 Z M 247.132812 376.019531 " fill-opacity="1" fill-rule="nonzero"/></g><path fill="#ffffff" d="M 265.546875 247.132812 L 191.894531 247.132812 C 191.039062 247.132812 190.191406 247.074219 189.34375 246.957031 C 188.496094 246.839844 187.660156 246.660156 186.835938 246.425781 C 186.015625 246.191406 185.214844 245.902344 184.429688 245.554688 C 183.648438 245.207031 182.894531 244.808594 182.167969 244.355469 C 181.441406 243.90625 180.75 243.40625 180.09375 242.855469 C 179.4375 242.308594 178.820312 241.71875 178.246094 241.082031 C 177.671875 240.449219 177.144531 239.777344 176.664062 239.070312 C 176.183594 238.363281 175.753906 237.625 175.375 236.859375 C 174.996094 236.089844 174.675781 235.300781 174.40625 234.488281 C 174.140625 233.675781 173.929688 232.851562 173.777344 232.007812 C 173.625 231.167969 173.53125 230.320312 173.496094 229.464844 C 173.460938 228.609375 173.484375 227.757812 173.570312 226.90625 C 173.652344 226.054688 173.796875 225.210938 174 224.382812 C 174.199219 223.550781 174.457031 222.738281 174.773438 221.941406 C 175.089844 221.144531 175.457031 220.375 175.878906 219.632812 C 176.300781 218.886719 176.773438 218.175781 177.296875 217.5 L 235.921875 141.261719 C 238.738281 137.96875 241.101562 134.371094 243 130.472656 C 244.898438 126.574219 246.277344 122.496094 247.132812 118.246094 C 247.132812 117.644531 247.105469 117.042969 247.046875 116.441406 C 246.984375 115.839844 246.898438 115.246094 246.78125 114.65625 C 246.664062 114.0625 246.515625 113.480469 246.339844 112.902344 C 246.164062 112.324219 245.964844 111.757812 245.730469 111.199219 C 245.5 110.644531 245.242188 110.097656 244.960938 109.566406 C 244.675781 109.035156 244.367188 108.519531 244.03125 108.015625 C 243.695312 107.515625 243.335938 107.03125 242.953125 106.566406 C 242.570312 106.097656 242.167969 105.652344 241.742188 105.226562 C 241.316406 104.800781 240.867188 104.394531 240.402344 104.011719 C 239.9375 103.628906 239.453125 103.273438 238.949219 102.9375 C 238.449219 102.601562 237.933594 102.292969 237.402344 102.007812 C 236.871094 101.722656 236.324219 101.464844 235.765625 101.234375 C 235.210938 101.003906 234.644531 100.800781 234.066406 100.625 C 233.488281 100.453125 232.90625 100.304688 232.3125 100.1875 C 231.722656 100.070312 231.125 99.980469 230.527344 99.921875 C 229.925781 99.863281 229.324219 99.832031 228.722656 99.832031 C 228.117188 99.832031 227.515625 99.863281 226.917969 99.921875 C 226.316406 99.980469 225.722656 100.070312 225.128906 100.1875 C 224.539062 100.304688 223.953125 100.453125 223.375 100.625 C 222.800781 100.800781 222.230469 101.003906 221.675781 101.234375 C 221.117188 101.464844 220.574219 101.722656 220.042969 102.007812 C 219.511719 102.292969 218.992188 102.601562 218.492188 102.9375 C 217.992188 103.273438 217.507812 103.628906 217.039062 104.011719 C 216.574219 104.394531 216.128906 104.800781 215.703125 105.226562 C 215.273438 105.652344 214.871094 106.097656 214.488281 106.566406 C 214.105469 107.03125 213.746094 107.515625 213.410156 108.015625 C 213.078125 108.519531 212.765625 109.035156 212.484375 109.566406 C 212.199219 110.097656 211.941406 110.644531 211.710938 111.199219 C 211.480469 111.757812 211.277344 112.324219 211.101562 112.902344 C 210.925781 113.480469 210.78125 114.0625 210.664062 114.65625 C 210.546875 115.246094 210.457031 115.839844 210.398438 116.441406 C 210.339844 117.042969 210.308594 117.644531 210.308594 118.246094 C 210.308594 118.847656 210.28125 119.449219 210.21875 120.050781 C 210.160156 120.652344 210.074219 121.246094 209.957031 121.839844 C 209.835938 122.429688 209.691406 123.015625 209.515625 123.589844 C 209.339844 124.167969 209.136719 124.734375 208.90625 125.292969 C 208.675781 125.851562 208.417969 126.394531 208.136719 126.925781 C 207.851562 127.457031 207.539062 127.972656 207.207031 128.476562 C 206.871094 128.976562 206.511719 129.460938 206.128906 129.925781 C 205.746094 130.394531 205.34375 130.839844 204.914062 131.265625 C 204.488281 131.691406 204.042969 132.097656 203.578125 132.480469 C 203.109375 132.863281 202.628906 133.222656 202.125 133.554688 C 201.625 133.890625 201.109375 134.199219 200.574219 134.484375 C 200.042969 134.769531 199.5 135.027344 198.941406 135.257812 C 198.386719 135.488281 197.816406 135.691406 197.242188 135.867188 C 196.664062 136.042969 196.078125 136.1875 195.488281 136.304688 C 194.898438 136.421875 194.300781 136.511719 193.699219 136.570312 C 193.101562 136.628906 192.5 136.660156 191.894531 136.660156 C 191.292969 136.660156 190.691406 136.628906 190.089844 136.570312 C 189.492188 136.511719 188.894531 136.421875 188.304688 136.304688 C 187.710938 136.1875 187.128906 136.042969 186.550781 135.867188 C 185.972656 135.691406 185.40625 135.488281 184.851562 135.257812 C 184.292969 135.027344 183.75 134.769531 183.21875 134.484375 C 182.683594 134.199219 182.167969 133.890625 181.667969 133.554688 C 181.164062 133.222656 180.683594 132.863281 180.214844 132.480469 C 179.75 132.097656 179.304688 131.691406 178.875 131.265625 C 178.449219 130.839844 178.046875 130.394531 177.664062 129.925781 C 177.28125 129.460938 176.921875 128.976562 176.585938 128.476562 C 176.253906 127.972656 175.941406 127.457031 175.65625 126.925781 C 175.375 126.394531 175.117188 125.851562 174.886719 125.292969 C 174.65625 124.734375 174.453125 124.167969 174.277344 123.589844 C 174.101562 123.015625 173.957031 122.429688 173.835938 121.839844 C 173.71875 121.246094 173.632812 120.652344 173.574219 120.050781 C 173.511719 119.449219 173.484375 118.847656 173.484375 118.246094 C 173.484375 116.4375 173.574219 114.632812 173.75 112.832031 C 173.925781 111.03125 174.191406 109.246094 174.546875 107.46875 C 174.898438 105.695312 175.335938 103.941406 175.863281 102.210938 C 176.386719 100.480469 176.996094 98.78125 177.6875 97.109375 C 178.382812 95.4375 179.152344 93.804688 180.007812 92.207031 C 180.859375 90.613281 181.789062 89.0625 182.792969 87.558594 C 183.796875 86.054688 184.875 84.601562 186.023438 83.203125 C 187.171875 81.804688 188.382812 80.46875 189.664062 79.1875 C 190.941406 77.910156 192.28125 76.695312 193.679688 75.546875 C 195.078125 74.398438 196.527344 73.324219 198.03125 72.316406 C 199.539062 71.3125 201.085938 70.382812 202.683594 69.53125 C 204.277344 68.679688 205.910156 67.90625 207.582031 67.214844 C 209.253906 66.519531 210.957031 65.914062 212.6875 65.386719 C 214.417969 64.863281 216.171875 64.421875 217.945312 64.070312 C 219.71875 63.71875 221.507812 63.453125 223.308594 63.273438 C 225.109375 63.097656 226.914062 63.007812 228.722656 63.007812 C 230.53125 63.007812 232.335938 63.097656 234.136719 63.273438 C 235.9375 63.453125 237.722656 63.71875 239.496094 64.070312 C 241.273438 64.421875 243.023438 64.863281 244.757812 65.386719 C 246.488281 65.914062 248.1875 66.519531 249.859375 67.214844 C 251.53125 67.90625 253.164062 68.679688 254.761719 69.53125 C 256.355469 70.382812 257.90625 71.3125 259.410156 72.316406 C 260.914062 73.324219 262.363281 74.398438 263.765625 75.546875 C 265.164062 76.695312 266.5 77.910156 267.78125 79.1875 C 269.058594 80.46875 270.273438 81.804688 271.421875 83.203125 C 272.566406 84.601562 273.644531 86.054688 274.648438 87.558594 C 275.65625 89.0625 276.582031 90.613281 277.4375 92.207031 C 278.289062 93.804688 279.0625 95.4375 279.753906 97.109375 C 280.445312 98.78125 281.054688 100.480469 281.582031 102.210938 C 282.105469 103.941406 282.542969 105.695312 282.898438 107.46875 C 283.25 109.246094 283.515625 111.03125 283.691406 112.832031 C 283.871094 114.632812 283.957031 116.4375 283.957031 118.246094 C 283.570312 122.363281 282.878906 126.429688 281.882812 130.441406 C 280.886719 134.457031 279.601562 138.375 278.023438 142.195312 C 276.445312 146.019531 274.59375 149.703125 272.464844 153.25 C 270.339844 156.796875 267.960938 160.164062 265.335938 163.355469 L 229.265625 210.308594 L 265.546875 210.308594 C 266.148438 210.308594 266.75 210.339844 267.351562 210.398438 C 267.953125 210.457031 268.546875 210.546875 269.136719 210.664062 C 269.730469 210.78125 270.3125 210.925781 270.890625 211.101562 C 271.46875 211.277344 272.035156 211.480469 272.59375 211.710938 C 273.148438 211.941406 273.695312 212.199219 274.226562 212.484375 C 274.757812 212.765625 275.273438 213.078125 275.777344 213.410156 C 276.277344 213.746094 276.761719 214.105469 277.226562 214.488281 C 277.691406 214.871094 278.140625 215.273438 278.566406 215.703125 C 278.992188 216.128906 279.398438 216.574219 279.78125 217.039062 C 280.160156 217.507812 280.519531 217.992188 280.855469 218.492188 C 281.191406 218.992188 281.5 219.511719 281.785156 220.042969 C 282.070312 220.574219 282.328125 221.117188 282.558594 221.675781 C 282.789062 222.230469 282.992188 222.800781 283.167969 223.375 C 283.339844 223.953125 283.488281 224.539062 283.605469 225.128906 C 283.722656 225.722656 283.8125 226.316406 283.871094 226.917969 C 283.929688 227.515625 283.957031 228.117188 283.957031 228.722656 C 283.957031 229.324219 283.929688 229.925781 283.871094 230.527344 C 283.8125 231.125 283.722656 231.722656 283.605469 232.3125 C 283.488281 232.90625 283.339844 233.488281 283.167969 234.066406 C 282.992188 234.644531 282.789062 235.210938 282.558594 235.765625 C 282.328125 236.324219 282.070312 236.871094 281.785156 237.402344 C 281.5 237.933594 281.191406 238.449219 280.855469 238.949219 C 280.519531 239.453125 280.160156 239.9375 279.78125 240.402344 C 279.398438 240.867188 278.992188 241.316406 278.566406 241.742188 C 278.140625 242.167969 277.691406 242.570312 277.226562 242.953125 C 276.761719 243.335938 276.277344 243.695312 275.777344 244.03125 C 275.273438 244.367188 274.757812 244.675781 274.226562 244.960938 C 273.695312 245.242188 273.148438 245.5 272.59375 245.730469 C 272.035156 245.964844 271.46875 246.164062 270.890625 246.339844 C 270.3125 246.515625 269.730469 246.664062 269.136719 246.78125 C 268.546875 246.898438 267.953125 246.984375 267.351562 247.046875 C 266.75 247.105469 266.148438 247.132812 265.546875 247.132812 Z M 265.546875 247.132812 " fill-opacity="1" fill-rule="nonzero"/></svg>