<svg xmlns="http://www.w3.org/2000/svg" xmlns:xlink="http://www.w3.org/1999/xlink" width="512" zoomAndPan="magnify" viewBox="0 0 384 383.999986" height="512" preserveAspectRatio="xMidYMid meet" version="1.0"><defs><clipPath id="df59862667"><path d="M 0 22.5 L 384 22.5 L 384 361.5 L 0 361.5 Z M 0 22.5 " clip-rule="nonzero"/></clipPath></defs><g clip-path="url(#df59862667)"><path fill="#ffffff" d="M 215.113281 22.535156 C 211.574219 22.539062 208.039062 22.652344 204.511719 22.878906 C 200.980469 23.105469 197.460938 23.4375 193.953125 23.882812 C 190.441406 24.332031 186.953125 24.882812 183.476562 25.546875 C 180.003906 26.210938 176.554688 26.984375 173.125 27.863281 C 169.699219 28.742188 166.304688 29.726562 162.941406 30.820312 C 159.578125 31.910156 156.25 33.105469 152.960938 34.40625 C 149.671875 35.707031 146.425781 37.105469 143.222656 38.609375 C 140.023438 40.113281 136.871094 41.710938 133.769531 43.410156 C 130.667969 45.109375 127.621094 46.90625 124.632812 48.796875 C 121.644531 50.683594 118.71875 52.667969 115.851562 54.738281 C 112.988281 56.8125 110.191406 58.972656 107.460938 61.21875 C 104.730469 63.46875 102.074219 65.796875 99.488281 68.210938 C 96.90625 70.625 94.398438 73.117188 91.972656 75.6875 C 89.542969 78.257812 87.199219 80.902344 84.9375 83.617188 C 82.675781 86.335938 80.5 89.121094 78.410156 91.972656 C 76.324219 94.824219 74.328125 97.742188 72.421875 100.71875 C 74.226562 101.214844 76.011719 101.816406 77.777344 102.523438 C 79.542969 103.230469 81.28125 104.039062 83 104.957031 C 84.714844 105.871094 86.398438 106.886719 88.050781 108 C 89.703125 109.117188 91.316406 110.328125 92.894531 111.636719 C 94.472656 112.945312 96.007812 114.34375 97.496094 115.835938 C 98.988281 117.328125 100.429688 118.902344 101.824219 120.566406 C 103.214844 122.230469 104.554688 123.972656 105.839844 125.792969 C 107.125 127.617188 108.347656 129.511719 109.515625 131.480469 C 110.683594 133.449219 111.785156 135.484375 112.828125 137.582031 C 113.867188 139.683594 114.84375 141.84375 115.75 144.058594 C 116.65625 146.273438 117.492188 148.539062 118.257812 150.855469 C 119.023438 153.171875 119.71875 155.527344 120.335938 157.925781 C 120.957031 160.324219 121.503906 162.757812 121.972656 165.21875 C 122.441406 167.683594 122.832031 170.171875 123.148438 172.679688 C 123.460938 175.191406 123.699219 177.714844 123.855469 180.253906 C 124.015625 182.792969 124.09375 185.335938 124.09375 187.882812 C 124.074219 196.054688 123.253906 204.070312 121.636719 211.933594 C 120.015625 219.792969 117.660156 227.203125 114.570312 234.160156 C 127.835938 243.351562 136.507812 258.652344 136.507812 276.074219 L 136.507812 327.058594 C 136.507812 331.835938 135.804688 336.4375 134.582031 340.816406 C 140.738281 344.167969 147.074219 347.128906 153.59375 349.695312 C 160.117188 352.265625 166.769531 354.417969 173.558594 356.164062 C 180.347656 357.90625 187.21875 359.226562 194.171875 360.117188 C 201.121094 361.011719 208.101562 361.472656 215.113281 361.5 C 217.886719 361.5 220.660156 361.429688 223.433594 361.292969 C 226.207031 361.160156 228.976562 360.953125 231.738281 360.683594 C 234.5 360.410156 237.253906 360.070312 240 359.664062 C 242.746094 359.257812 245.480469 358.785156 248.203125 358.242188 C 250.925781 357.703125 253.632812 357.09375 256.328125 356.421875 C 259.019531 355.746094 261.695312 355.007812 264.351562 354.203125 C 267.007812 353.394531 269.640625 352.527344 272.253906 351.589844 C 274.867188 350.65625 277.457031 349.660156 280.023438 348.597656 C 282.585938 347.535156 285.125 346.414062 287.632812 345.226562 C 290.144531 344.042969 292.621094 342.792969 295.070312 341.488281 C 297.519531 340.179688 299.933594 338.8125 302.3125 337.386719 C 304.695312 335.960938 307.039062 334.476562 309.347656 332.9375 C 311.65625 331.394531 313.925781 329.796875 316.15625 328.144531 C 318.382812 326.492188 320.574219 324.789062 322.71875 323.027344 C 324.863281 321.269531 326.964844 319.457031 329.023438 317.59375 C 331.078125 315.730469 333.089844 313.820312 335.050781 311.859375 C 337.015625 309.898438 338.929688 307.890625 340.792969 305.835938 C 342.65625 303.777344 344.46875 301.679688 346.230469 299.535156 C 347.992188 297.390625 349.699219 295.207031 351.351562 292.976562 C 353.007812 290.75 354.605469 288.480469 356.144531 286.175781 C 357.6875 283.871094 359.171875 281.527344 360.601562 279.148438 C 362.027344 276.769531 363.394531 274.355469 364.703125 271.910156 C 366.011719 269.464844 367.261719 266.988281 368.445312 264.480469 C 369.632812 261.972656 370.757812 259.4375 371.820312 256.875 C 372.882812 254.3125 373.882812 251.726562 374.816406 249.113281 C 375.753906 246.503906 376.625 243.871094 377.429688 241.214844 C 378.234375 238.5625 378.976562 235.886719 379.648438 233.199219 C 380.324219 230.507812 380.933594 227.800781 381.472656 225.082031 C 382.015625 222.359375 382.488281 219.628906 382.898438 216.886719 C 383.304688 214.140625 383.644531 211.390625 383.917969 208.628906 C 384.1875 205.867188 384.390625 203.105469 384.527344 200.332031 C 384.664062 197.5625 384.734375 194.789062 384.734375 192.015625 C 384.734375 189.242188 384.664062 186.472656 384.527344 183.699219 C 384.390625 180.929688 384.1875 178.164062 383.917969 175.40625 C 383.644531 172.644531 383.304688 169.890625 382.898438 167.148438 C 382.488281 164.40625 382.015625 161.671875 381.472656 158.953125 C 380.933594 156.230469 380.324219 153.527344 379.648438 150.835938 C 378.976562 148.144531 378.234375 145.472656 377.429688 142.820312 C 376.625 140.164062 375.753906 137.53125 374.816406 134.921875 C 373.882812 132.308594 372.882812 129.722656 371.820312 127.160156 C 370.757812 124.597656 369.632812 122.0625 368.449219 119.554688 C 367.261719 117.046875 366.011719 114.570312 364.703125 112.125 C 363.394531 109.675781 362.027344 107.265625 360.601562 104.886719 C 359.171875 102.507812 357.6875 100.164062 356.144531 97.859375 C 354.605469 95.550781 353.007812 93.285156 351.351562 91.054688 C 349.699219 88.828125 347.992188 86.640625 346.230469 84.5 C 344.46875 82.355469 342.65625 80.253906 340.792969 78.199219 C 338.929688 76.144531 337.015625 74.136719 335.050781 72.175781 C 333.089844 70.214844 331.078125 68.300781 329.023438 66.4375 C 326.964844 64.578125 324.863281 62.765625 322.71875 61.003906 C 320.574219 59.246094 318.382812 57.539062 316.15625 55.886719 C 313.925781 54.234375 311.65625 52.636719 309.347656 51.097656 C 307.039062 49.554688 304.695312 48.074219 302.3125 46.648438 C 299.933594 45.222656 297.519531 43.855469 295.070312 42.546875 C 292.621094 41.238281 290.144531 39.992188 287.632812 38.808594 C 285.125 37.621094 282.585938 36.496094 280.023438 35.4375 C 277.457031 34.375 274.867188 33.375 272.253906 32.441406 C 269.640625 31.507812 267.007812 30.636719 264.351562 29.832031 C 261.695312 29.027344 259.019531 28.289062 256.328125 27.613281 C 253.632812 26.941406 250.925781 26.332031 248.203125 25.792969 C 245.480469 25.25 242.746094 24.777344 240 24.371094 C 237.253906 23.960938 234.5 23.621094 231.738281 23.351562 C 228.976562 23.078125 226.207031 22.875 223.433594 22.738281 C 220.660156 22.601562 217.886719 22.535156 215.113281 22.535156 M 59.972656 113.476562 C 58.414062 113.476562 56.859375 113.597656 55.308594 113.835938 C 53.757812 114.074219 52.21875 114.429688 50.6875 114.90625 C 49.160156 115.382812 47.652344 115.972656 46.160156 116.679688 C 44.667969 117.386719 43.203125 118.207031 41.765625 119.140625 C 40.324219 120.074219 38.917969 121.113281 37.542969 122.261719 C 36.167969 123.410156 34.835938 124.664062 33.539062 126.015625 C 32.242188 127.371094 30.992188 128.820312 29.789062 130.367188 C 28.585938 131.914062 27.429688 133.546875 26.328125 135.269531 C 25.226562 136.992188 24.183594 138.796875 23.195312 140.679688 C 22.207031 142.5625 21.277344 144.519531 20.414062 146.546875 C 19.546875 148.570312 18.746094 150.660156 18.011719 152.808594 C 17.277344 154.957031 16.613281 157.15625 16.015625 159.410156 C 15.417969 161.660156 14.894531 163.953125 14.441406 166.285156 C 13.992188 168.617188 13.613281 170.976562 13.308594 173.367188 C 13.003906 175.757812 12.777344 178.164062 12.625 180.589844 C 12.46875 183.015625 12.394531 185.445312 12.394531 187.882812 C 12.40625 194.851562 13.027344 201.679688 14.265625 208.375 C 15.503906 215.070312 17.304688 221.367188 19.675781 227.265625 C 24.351562 225.863281 29.3125 225.089844 34.460938 225.089844 L 85.488281 225.089844 C 90.652344 225.089844 95.613281 225.867188 100.304688 227.273438 C 102.667969 221.371094 104.464844 215.070312 105.695312 208.375 C 106.925781 201.679688 107.542969 194.851562 107.546875 187.882812 C 107.546875 185.445312 107.46875 183.015625 107.316406 180.589844 C 107.164062 178.164062 106.9375 175.757812 106.632812 173.367188 C 106.328125 170.976562 105.949219 168.617188 105.496094 166.285156 C 105.046875 163.953125 104.519531 161.660156 103.925781 159.410156 C 103.328125 157.15625 102.664062 154.957031 101.929688 152.808594 C 101.195312 150.660156 100.394531 148.570312 99.527344 146.546875 C 98.664062 144.519531 97.734375 142.5625 96.746094 140.679688 C 95.757812 138.796875 94.714844 136.992188 93.613281 135.269531 C 92.507812 133.546875 91.355469 131.914062 90.152344 130.367188 C 88.949219 128.820312 87.699219 127.371094 86.402344 126.015625 C 85.105469 124.664062 83.769531 123.410156 82.398438 122.261719 C 81.023438 121.113281 79.617188 120.074219 78.175781 119.140625 C 76.738281 118.207031 75.273438 117.386719 73.78125 116.679688 C 72.289062 115.972656 70.78125 115.382812 69.25 114.90625 C 67.722656 114.429688 66.183594 114.074219 64.632812 113.835938 C 63.082031 113.597656 61.527344 113.476562 59.96875 113.476562 M 155.910156 142.414062 L 201.914062 162.664062 C 202.632812 162.980469 203.296875 163.394531 203.898438 163.898438 C 204.503906 164.40625 205.023438 164.988281 205.460938 165.640625 C 205.898438 166.296875 206.234375 167 206.46875 167.75 C 206.707031 168.5 206.832031 169.269531 206.847656 170.054688 C 206.867188 170.84375 206.773438 171.617188 206.566406 172.375 C 206.363281 173.136719 206.054688 173.851562 205.648438 174.523438 C 205.238281 175.199219 204.742188 175.800781 204.160156 176.332031 C 203.578125 176.863281 202.9375 177.300781 202.230469 177.648438 L 156.222656 200.28125 L 148.917969 185.449219 L 178.996094 170.648438 L 149.238281 157.546875 L 155.910156 142.417969 M 277.1875 146.550781 C 278 146.550781 278.8125 146.589844 279.621094 146.671875 C 280.429688 146.75 281.230469 146.867188 282.027344 147.027344 C 282.828125 147.1875 283.613281 147.382812 284.390625 147.617188 C 285.171875 147.855469 285.933594 148.128906 286.6875 148.4375 C 287.4375 148.75 288.171875 149.097656 288.886719 149.480469 C 289.605469 149.863281 290.300781 150.277344 290.976562 150.730469 C 291.652344 151.183594 292.304688 151.664062 292.933594 152.179688 C 293.5625 152.695312 294.164062 153.242188 294.738281 153.816406 C 295.3125 154.390625 295.859375 154.992188 296.375 155.617188 C 296.890625 156.246094 297.375 156.898438 297.824219 157.574219 C 298.277344 158.25 298.695312 158.945312 299.078125 159.660156 C 299.460938 160.378906 299.808594 161.109375 300.121094 161.863281 C 300.429688 162.613281 300.703125 163.375 300.941406 164.152344 C 301.175781 164.929688 301.375 165.71875 301.53125 166.515625 C 301.691406 167.3125 301.808594 168.113281 301.890625 168.921875 C 301.96875 169.730469 302.007812 170.539062 302.007812 171.351562 C 302.007812 172.164062 301.96875 172.976562 301.890625 173.785156 C 301.808594 174.59375 301.691406 175.394531 301.53125 176.191406 C 301.375 176.988281 301.175781 177.773438 300.941406 178.550781 C 300.703125 179.328125 300.429688 180.09375 300.121094 180.84375 C 299.808594 181.59375 299.460938 182.328125 299.078125 183.042969 C 298.695312 183.761719 298.277344 184.457031 297.824219 185.132812 C 297.375 185.808594 296.890625 186.460938 296.375 187.085938 C 295.859375 187.714844 295.3125 188.316406 294.738281 188.890625 C 294.164062 189.464844 293.5625 190.011719 292.933594 190.523438 C 292.304688 191.039062 291.652344 191.523438 290.976562 191.976562 C 290.300781 192.425781 289.605469 192.84375 288.886719 193.226562 C 288.171875 193.609375 287.4375 193.957031 286.6875 194.265625 C 285.933594 194.578125 285.171875 194.851562 284.390625 195.085938 C 283.613281 195.324219 282.828125 195.519531 282.027344 195.679688 C 281.230469 195.835938 280.429688 195.957031 279.621094 196.035156 C 278.8125 196.117188 278 196.15625 277.1875 196.15625 C 276.375 196.15625 275.5625 196.117188 274.753906 196.035156 C 273.945312 195.957031 273.140625 195.835938 272.34375 195.679688 C 271.546875 195.519531 270.757812 195.324219 269.980469 195.085938 C 269.203125 194.851562 268.4375 194.578125 267.6875 194.265625 C 266.9375 193.957031 266.203125 193.609375 265.484375 193.226562 C 264.769531 192.84375 264.070312 192.425781 263.394531 191.976562 C 262.71875 191.523438 262.066406 191.039062 261.4375 190.523438 C 260.8125 190.011719 260.210938 189.464844 259.632812 188.890625 C 259.058594 188.316406 258.515625 187.714844 258 187.085938 C 257.484375 186.460938 257 185.808594 256.546875 185.132812 C 256.09375 184.457031 255.679688 183.761719 255.296875 183.042969 C 254.910156 182.328125 254.566406 181.59375 254.253906 180.84375 C 253.941406 180.09375 253.667969 179.328125 253.433594 178.550781 C 253.195312 177.773438 253 176.988281 252.839844 176.191406 C 252.683594 175.394531 252.5625 174.59375 252.484375 173.785156 C 252.402344 172.976562 252.363281 172.164062 252.363281 171.351562 C 252.363281 170.539062 252.402344 169.730469 252.484375 168.921875 C 252.5625 168.113281 252.683594 167.3125 252.839844 166.515625 C 253 165.71875 253.195312 164.929688 253.433594 164.152344 C 253.667969 163.375 253.941406 162.613281 254.253906 161.863281 C 254.566406 161.109375 254.910156 160.378906 255.296875 159.660156 C 255.679688 158.945312 256.097656 158.25 256.546875 157.574219 C 257 156.898438 257.484375 156.246094 258 155.617188 C 258.515625 154.992188 259.058594 154.390625 259.632812 153.816406 C 260.210938 153.242188 260.8125 152.695312 261.441406 152.179688 C 262.066406 151.664062 262.71875 151.183594 263.394531 150.730469 C 264.070312 150.28125 264.769531 149.863281 265.484375 149.480469 C 266.203125 149.097656 266.9375 148.75 267.6875 148.4375 C 268.4375 148.128906 269.203125 147.855469 269.980469 147.617188 C 270.757812 147.382812 271.546875 147.1875 272.34375 147.027344 C 273.140625 146.867188 273.945312 146.75 274.753906 146.671875 C 275.5625 146.589844 276.375 146.550781 277.1875 146.550781 M 40.007812 241.625 C 17.851562 241.625 0.0078125 259.453125 0.0078125 281.589844 L 0.0078125 321.546875 C 0.0078125 343.683594 17.851562 361.503906 40.007812 361.503906 L 79.996094 361.503906 C 95.136719 361.503906 108.257812 353.195312 115.050781 340.835938 L 53.792969 340.835938 L 53.792969 328.433594 L 119.355469 328.433594 C 119.746094 326.195312 119.984375 323.902344 119.984375 321.546875 L 119.984375 307.765625 L 53.792969 307.765625 L 53.792969 295.363281 L 119.984375 295.363281 L 119.984375 281.589844 C 119.984375 279.234375 119.742188 276.941406 119.355469 274.695312 L 53.792969 274.695312 L 53.792969 262.292969 L 115.050781 262.292969 C 108.257812 249.960938 95.136719 241.625 79.996094 241.625 L 40.007812 241.625 M 167.214844 241.625 C 167.214844 241.625 188.695312 274.695312 223.566406 274.695312 C 258.4375 274.695312 279.910156 241.625 279.910156 241.625 L 293.894531 250.460938 C 293.894531 250.460938 268.636719 291.230469 223.566406 291.230469 C 178.496094 291.230469 153.234375 250.460938 153.234375 250.460938 L 167.214844 241.625 " fill-opacity="1" fill-rule="nonzero"/></g></svg>